<svg width="580" height="400" xmlns="http://www.w3.org/2000/svg">
 <!-- Created with Method Draw - http://github.com/duopixel/Method-Draw/ -->

 <g>
  <title>background</title>
  <rect fill="#fff" id="canvas_background" height="402" width="582" y="-1" x="-1"/>
  <g display="none" overflow="visible" y="0" x="0" height="100%" width="100%" id="canvasGrid">
   <rect fill="url(#gridpattern)" stroke-width="0" y="0" x="0" height="100%" width="100%"/>
  </g>
 </g>
 <g>
  <title>Layer 1</title>
  <metadata transform="matrix(0.13566266531008697,0,0,0.13566266531008697,0,0) ">Created by potrace 1.11, written by Peter Selinger 2001-2013</metadata>
  <g stroke="null" id="svg_19">
   <g id="svg_4" fill="#000000" transform="matrix(0.11500261434293994,0,0,-0.11500261434293994,-1050.3722935302337,-675.7182754352642) ">
    <path fill="#7f7f7f" stroke="#b2b2b2" id="svg_5" d="m11687.27146,-6008.356403c-63,-26 -133,-79 -171,-129c-39,-51 -70,-178 -61,-251c8,-79 30,-126 94,-205c46,-57 51,-68 51,-113c0,-27 5,-58 10,-69c8,-14 7,-27 -5,-48c-21,-41 -19,-70 9,-115c19,-32 22,-45 15,-70c-14,-47 -12,-53 26,-95c23,-25 35,-48 35,-67c0,-16 7,-40 16,-52c14,-21 14,-27 -6,-85c-24,-69 -22,-109 11,-204c10,-31 19,-68 19,-82c1,-36 41,-130 74,-173c15,-20 47,-46 72,-57c52,-25 55,-41 14,-88c-37,-42 -42,-73 -18,-121c9,-18 9,-28 0,-42c-31,-50 3,-173 80,-286c28,-42 63,-83 77,-92c14,-9 27,-17 29,-18c2,-1 -4,-19 -13,-40c-9,-22 -16,-64 -16,-94c0,-30 -5,-71 -10,-91c-9,-29 -8,-42 5,-68c10,-18 24,-35 32,-38c8,-3 14,-19 14,-42c0,-54 20,-84 67,-101c23,-8 57,-32 75,-53c34,-39 78,-56 147,-57c47,0 110,32 171,87l50,45l51,-21c44,-19 61,-21 132,-16c113,9 151,21 193,57c47,42 87,112 82,143c-4,16 3,36 19,57c18,25 23,43 21,78l-2,45l42,-4c29,-2 53,4 76,17c18,11 50,25 72,32c43,14 73,44 74,74c0,11 14,44 32,75c28,48 32,65 32,121c-1,77 -30,152 -66,171c-31,16 -38,28 -38,67c0,30 2,32 34,32c88,0 171,193 121,280c-8,14 -14,43 -15,64c0,32 -7,46 -40,77c-22,21 -40,46 -40,56c0,9 -25,41 -55,70c-55,51 -56,53 -41,80c45,87 45,245 0,312c-32,48 -53,63 -147,101c-70,28 -72,30 -69,62c10,114 7,166 -13,188c-14,16 -20,36 -20,70c0,55 -32,100 -71,100c-13,0 -29,7 -36,16c-53,66 -68,76 -106,71c-20,-3 -48,-8 -62,-12c-14,-3 -37,-2 -53,4c-21,8 -27,17 -27,40c0,20 -10,39 -30,58c-16,15 -35,46 -42,68c-15,46 -82,97 -151,116c-51,13 -238,2 -286,-17c-18,-8 -37,-14 -41,-14c-4,0 -21,22 -38,50c-22,35 -52,63 -101,95c-124,80 -185,91 -284,51zm173,-367c0,-5 5,-7 10,-4c6,3 10,-1 10,-9c0,-9 6,-15 13,-13c7,1 11,-7 10,-20c-2,-16 3,-23 15,-23c13,0 14,-2 3,-9c-11,-7 -10,-11 4,-19c17,-9 16,-10 -5,-17c-20,-6 -21,-9 -9,-19c8,-6 14,-17 13,-23c-1,-7 -2,-18 -3,-24c0,-6 -9,-8 -18,-5c-13,4 -23,-3 -34,-22c-11,-20 -24,-28 -42,-28c-15,0 -27,4 -27,9c0,4 -4,6 -10,2c-5,-3 -18,3 -30,15c-11,11 -25,20 -31,20c-6,0 -7,5 -2,13c13,20 12,37 -2,37c-18,0 -23,29 -13,68c6,23 14,32 23,28c10,-3 12,0 8,12c-6,15 -5,15 10,3c15,-12 17,-11 17,8c0,18 4,21 29,16c17,-3 33,-1 36,5c8,13 25,13 25,-1zm533,-7c16,8 22,8 25,-1c2,-6 8,-9 13,-5c5,3 9,-2 9,-10c0,-9 6,-15 13,-13c6,1 11,-6 11,-15c-1,-10 3,-18 8,-18c6,0 8,-7 4,-15c-3,-8 0,-15 7,-15c7,0 6,-4 -3,-10c-12,-8 -13,-13 -2,-30c7,-11 8,-20 3,-20c-5,0 -13,-9 -16,-21c-4,-12 -12,-18 -21,-15c-8,3 -13,0 -11,-7c1,-7 -3,-11 -10,-10c-7,2 -10,-4 -7,-12c8,-21 -37,-29 -81,-15c-19,6 -33,15 -30,20c2,4 -11,10 -31,13c-27,5 -44,1 -70,-16c-18,-12 -34,-28 -34,-36c0,-8 -6,-11 -16,-7c-8,3 -12,2 -9,-4c3,-6 1,-10 -5,-10c-7,0 -9,-8 -5,-20c4,-14 2,-20 -7,-18c-7,2 -12,-3 -11,-9c2,-7 -2,-13 -8,-13c-6,0 -9,-9 -6,-20c3,-11 1,-20 -5,-20c-5,0 -6,-4 -3,-10c3,-5 2,-10 -4,-10c-6,0 -8,-7 -5,-15c4,-10 0,-15 -14,-15c-14,0 -19,-6 -18,-17c4,-22 -28,-45 -60,-45c-13,0 -24,-5 -24,-11c0,-7 -4,-7 -12,1c-17,17 -51,16 -45,-2c4,-10 -4,-15 -24,-18c-16,-3 -29,0 -29,5c0,5 -6,4 -14,-2c-11,-9 -15,-9 -19,1c-4,9 -6,8 -6,-3c-1,-9 -8,-16 -16,-16c-9,0 -18,19 -26,56c-6,30 -14,61 -16,68c-4,9 0,11 11,7c9,-3 16,-2 16,2c0,14 73,14 83,1c7,-9 10,-9 14,0c3,8 14,11 27,7c16,-4 27,2 42,20c10,14 24,26 31,26c7,0 10,7 7,15c-4,11 -2,13 9,9c20,-7 32,13 17,31c-10,12 -10,15 0,15c19,0 50,44 37,52c-9,6 -8,8 1,8c7,0 10,5 7,10c-3,6 -2,10 3,10c6,0 8,10 4,22c-4,17 -2,20 11,15c11,-4 14,-2 11,8c-5,13 32,45 58,49c7,1 18,5 25,9c6,4 14,3 18,-3c9,-15 35,-12 35,4c0,8 16,20 34,27c19,7 32,17 29,23c-4,5 1,7 11,3c13,-5 19,-1 23,14c3,12 11,18 19,15c8,-3 14,0 15,7c0,9 2,9 6,0c3,-10 10,-10 26,-1zm263,-502c8,0 14,-4 14,-10c0,-5 7,-10 15,-10c8,0 15,-4 15,-9c0,-5 -7,-14 -15,-21c-10,-9 -15,-9 -15,-1c0,12 -39,15 -56,3c-26,-17 -33,-46 -18,-74c17,-33 50,-37 80,-10c18,17 20,17 37,0c9,-10 13,-18 7,-18c-5,0 -9,-3 -9,-7c4,-23 -3,-35 -16,-29c-8,3 -20,-3 -27,-13c-25,-34 -50,-41 -89,-22c-50,25 -78,31 -85,20c-3,-6 -11,-6 -17,-1c-16,12 -36,9 -45,-5c-4,-7 -17,-14 -27,-16c-11,-1 -24,-5 -30,-8c-5,-3 -21,-5 -35,-4c-14,1 -38,2 -53,3c-16,1 -25,6 -22,12c3,6 -1,10 -10,10c-11,0 -15,5 -11,15c3,9 0,15 -10,15c-9,0 -12,5 -8,13c5,7 1,7 -10,-2c-15,-13 -19,-13 -27,0c-5,8 -9,10 -9,5c0,-5 -7,-3 -15,4c-8,7 -15,8 -15,2c0,-12 -42,-24 -50,-14c-8,11 -40,11 -40,0c0,-6 -7,-8 -15,-5c-8,4 -17,2 -20,-3c-6,-9 -24,-8 -42,3c-9,6 -13,2 -13,-10c0,-15 -8,-19 -40,-19c-22,-1 -40,3 -40,8c0,9 -22,7 -30,-3c-3,-4 -14,-9 -26,-13c-19,-6 -22,0 -35,62l-15,69l28,-3c15,-2 33,2 40,9c16,15 48,18 48,4c0,-5 9,-2 20,8c18,16 20,16 20,2c0,-23 27,-22 34,1c3,10 14,18 23,18c26,2 87,14 92,19c2,3 10,0 17,-6c8,-7 14,-7 19,1c5,8 11,7 23,-2c12,-10 16,-10 19,0c7,19 43,15 43,-5c0,-13 3,-14 11,-6c9,9 18,4 36,-18c19,-22 28,-27 38,-19c10,8 15,6 19,-7c7,-20 56,-30 56,-11c0,6 3,8 7,5c3,-4 13,-2 20,5c11,9 17,9 25,-3c8,-12 10,-12 15,0c5,11 7,11 14,0c7,-11 9,-9 9,6c0,14 7,21 21,22c11,1 28,10 37,21c10,10 23,17 30,15c7,-3 12,4 12,14c0,16 6,19 29,15c17,-2 32,1 37,9c6,10 9,10 12,1c2,-7 10,-12 18,-12zm-407,-289c8,-1 11,-7 7,-16c-3,-10 -1,-15 7,-13c7,2 14,-1 16,-7c2,-5 7,-19 13,-30c8,-17 7,-18 -4,-4c-24,28 -58,30 -84,4c-29,-30 -31,-56 -3,-81c24,-22 47,-12 67,29c7,15 21,27 30,27c16,-1 16,-1 0,-11c-22,-12 -23,-29 -3,-29c10,0 15,-7 13,-17c-4,-21 -20,-42 -29,-37c-3,2 -16,-8 -27,-21c-12,-14 -30,-25 -40,-25c-27,0 -83,21 -78,28c2,4 -18,7 -46,7c-30,-1 -53,-6 -58,-14c-4,-8 -15,-11 -24,-8c-9,4 -16,2 -16,-3c0,-12 -22,-9 -32,5c-5,6 -8,5 -8,-2c0,-8 -9,-11 -22,-10c-17,3 -25,15 -35,53c-19,73 -17,93 7,87c11,-3 26,0 34,6c8,7 31,11 52,10c70,-4 93,1 116,24c13,13 30,21 37,19c10,-3 12,1 7,13c-4,12 -2,16 7,12c8,-3 19,-2 26,2c6,4 22,6 34,5c12,-1 28,-3 36,-3zm563,-201c6,0 8,-7 4,-15c-3,-8 0,-14 7,-12c7,1 12,-5 12,-13c0,-8 6,-19 13,-23c7,-5 10,-12 7,-18c-4,-5 0,-9 7,-9c10,0 10,-2 -1,-9c-9,-6 -11,-15 -6,-27c5,-11 9,-23 9,-29c2,-13 -17,-34 -25,-29c-3,2 -16,-8 -27,-21c-12,-14 -30,-25 -40,-25c-27,0 -82,21 -82,31c0,4 -7,6 -15,3c-9,-4 -15,0 -15,7c0,9 -5,7 -12,-5c-11,-19 -11,-19 -24,-1c-8,10 -14,14 -14,7c0,-6 -9,-9 -21,-7c-15,3 -19,0 -15,-10c4,-11 -3,-15 -27,-17c-71,-3 -111,0 -115,10c-2,6 -10,8 -18,5c-8,-3 -14,0 -14,7c0,6 -4,9 -9,6c-5,-4 -11,0 -14,6c-3,9 -10,7 -21,-7c-14,-19 -15,-19 -16,-1c0,12 -5,16 -15,13c-8,-4 -17,-1 -21,5c-4,7 -9,6 -15,-3c-7,-11 -12,-12 -28,-2c-15,10 -21,10 -25,0c-3,-9 -7,-8 -15,3c-10,13 -11,13 -11,0c0,-13 -1,-13 -10,0c-8,12 -10,12 -16,-3c-4,-10 -13,-16 -21,-13c-7,3 -17,-2 -20,-11c-6,-14 -7,-14 -19,1c-8,11 -14,13 -19,6c-3,-5 -11,-8 -16,-5c-5,4 -9,0 -9,-8c0,-21 -44,-38 -60,-24c-10,9 -14,9 -18,-2c-3,-10 -8,-7 -18,10c-9,17 -13,19 -14,8c0,-9 -8,-19 -19,-22c-16,-4 -20,4 -30,51c-14,68 -14,85 -1,77c6,-3 10,-3 10,2c0,4 12,9 28,9c33,1 83,11 89,18c3,3 13,-2 22,-11c15,-15 16,-15 20,2c2,14 5,15 12,4c7,-11 9,-11 9,4c0,10 8,17 19,17c10,0 37,7 60,15c31,10 41,11 41,2c0,-7 3,-8 8,-2c11,15 52,14 52,-2c0,-8 4,-12 9,-8c5,3 13,0 16,-5c5,-7 12,-5 21,7c13,17 13,17 14,-1c0,-11 5,-16 14,-13c7,3 19,0 25,-6c8,-8 14,-8 22,0c13,13 49,5 49,-10c0,-7 4,-7 12,1c18,18 28,15 29,-10c1,-19 2,-19 6,-5c3,11 11,16 19,13c8,-3 17,1 21,10c5,15 7,15 15,1c10,-19 38,-12 38,9c0,12 19,19 43,15c4,0 7,4 7,9c0,5 7,10 16,10c8,0 12,5 8,11c-4,8 1,9 16,4c19,-6 22,-4 16,10c-5,14 -2,17 18,13c14,-3 31,-1 38,3c7,5 19,7 26,4c8,-3 18,-5 24,-5zm202,-366c9,-3 16,-12 16,-20c0,-8 3,-13 8,-13c20,3 23,-3 11,-18c-10,-11 -10,-14 -1,-9c11,6 17,-5 13,-26c0,-5 4,-8 9,-8c7,0 7,-6 1,-18c-6,-12 -5,-23 4,-36c11,-14 11,-21 2,-31c-7,-7 -17,-10 -24,-8c-6,2 -14,-5 -18,-16c-3,-12 -18,-24 -33,-27c-15,-3 -33,-7 -39,-10c-7,-2 -13,1 -13,7c0,6 -4,8 -9,4c-5,-3 -12,-1 -16,4c-4,7 -15,7 -32,0c-17,-6 -30,-6 -38,1c-9,8 -14,6 -19,-6c-5,-12 -9,-14 -20,-5c-7,6 -16,8 -19,4c-4,-3 -7,-1 -7,5c0,6 -6,9 -14,6c-8,-3 -12,-12 -9,-20c3,-9 -2,-14 -16,-15c-23,-2 -39,-5 -43,-9c-2,-1 -25,-3 -52,-5c-28,-1 -52,-8 -57,-16c-7,-11 -11,-10 -24,6c-14,19 -15,19 -8,1c5,-16 3,-18 -11,-13c-10,4 -22,7 -28,7c-6,0 -8,6 -5,14c4,11 -1,13 -19,10c-15,-3 -24,0 -24,8c0,7 -11,18 -25,25c-19,8 -24,8 -19,0c3,-7 -1,-4 -9,5c-8,10 -17,15 -20,11c-4,-3 -7,-1 -7,5c0,7 -5,12 -10,12c-6,0 -9,-3 -9,-7c3,-18 -2,-24 -13,-17c-22,14 -48,11 -48,-4c0,-11 -3,-12 -14,-3c-11,10 -17,8 -25,-6c-11,-17 -12,-17 -26,1c-8,11 -15,14 -15,7c0,-7 -5,-9 -11,-6c-6,4 -13,-2 -16,-13c-3,-11 -12,-20 -21,-20c-10,0 -29,-3 -44,-7c-16,-4 -28,-3 -28,2c0,5 -9,9 -20,10c-11,1 -20,-4 -20,-13c0,-8 -7,-14 -15,-14c-8,0 -18,0 -22,-1c-5,0 -13,21 -20,48c-13,56 -16,89 -6,80c3,-4 12,-2 20,4c7,6 13,9 13,6c0,-3 20,1 45,8c31,10 46,11 51,3c4,-7 10,-4 16,6c8,14 13,15 24,5c8,-6 14,-8 14,-3c0,5 5,2 10,-6c9,-13 10,-13 10,0c0,13 1,13 10,0c8,-12 10,-11 10,8c0,12 3,21 8,21c4,-1 10,0 15,1c4,1 12,4 17,5c6,1 12,4 15,5c3,1 10,4 15,5c6,1 11,4 13,5c1,1 33,3 70,5c62,1 68,0 64,-17c-3,-10 -2,-16 3,-13c4,3 11,-2 14,-11c5,-13 9,-14 20,-5c11,10 15,8 18,-6c2,-14 13,-18 45,-18c23,0 39,3 37,7c-3,4 4,8 15,8c12,0 21,-5 21,-11c0,-8 4,-8 14,0c11,9 15,9 19,-1c3,-8 6,-6 6,6c1,13 6,16 18,12c9,-4 20,-1 24,5c4,7 12,8 20,3c25,-15 41,-13 46,7c3,11 11,18 18,15c7,-2 16,-2 20,2c4,4 11,8 16,8c5,1 13,2 18,3c5,0 13,10 16,21c4,11 11,18 16,15c5,-4 9,1 9,10c0,11 5,15 15,11c9,-3 15,0 15,10c0,8 4,13 8,10c7,-4 53,5 69,13c1,1 8,-2 17,-5zm-418,-457c5,-1 8,-8 6,-14c-2,-8 3,-10 13,-7c10,4 15,0 15,-10c0,-12 -6,-15 -24,-10c-21,5 -44,-3 -95,-33c-2,-2 4,-12 14,-23c23,-25 50,-26 68,0c8,11 17,17 21,13c3,-4 13,2 20,13c8,10 18,16 22,11c4,-4 2,-7 -6,-7c-10,0 -10,-3 0,-15c10,-12 10,-15 -4,-15c-20,0 -21,-19 -2,-26c18,-7 6,-49 -13,-49c-7,0 -20,-11 -31,-25c-18,-23 -70,-37 -70,-18c0,5 -4,7 -9,3c-5,-3 -16,1 -23,9c-10,10 -27,12 -61,6c-28,-4 -50,-3 -57,4c-7,7 -10,7 -10,-1c0,-6 -10,-11 -22,-11c-23,-1 -63,-9 -63,-12c0,-1 -16,-4 -35,-7c-19,-2 -43,-9 -53,-15c-13,-7 -23,-6 -30,1c-7,7 -14,7 -24,0c-9,-9 -13,-8 -13,0c0,7 -4,10 -8,7c-5,-3 -15,26 -24,64l-15,70l41,1c23,1 47,1 55,0c7,-2 11,1 8,6c-7,10 74,10 91,-1c6,-4 12,-3 12,2c0,5 11,7 25,4c19,-3 25,0 25,14c1,18 1,18 15,0c13,-17 15,-18 15,-3c0,9 3,16 8,16c4,-1 9,-1 12,1c3,1 16,3 30,6c14,2 30,10 35,18c6,7 16,11 23,9c7,-3 12,4 12,17c0,17 3,20 13,12c8,-7 21,-6 42,2c18,8 32,9 36,4c3,-6 10,-10 15,-11zm354,-263c0,-8 3,-13 8,-13c20,3 23,-3 11,-18c-10,-11 -10,-14 -1,-9c11,6 17,-5 13,-26c0,-5 4,-8 10,-8c6,0 4,-7 -5,-15c-15,-16 -51,-21 -42,-7c3,5 -2,19 -11,31c-12,18 -22,22 -44,17c-16,-3 -29,-1 -29,4c0,6 -3,10 -7,10c-12,0 -8,-63 5,-87c7,-13 22,-23 32,-23c24,0 25,-8 5,-36c-14,-21 -40,-24 -83,-10c-12,4 -20,12 -17,17c3,5 -8,7 -24,5c-17,-2 -31,1 -31,7c0,5 -8,3 -17,-4c-11,-10 -14,-10 -9,-1c4,6 2,12 -3,12c-6,0 -11,-6 -11,-14c0,-20 -63,-42 -110,-38c-29,3 -40,8 -36,18c3,8 0,11 -10,7c-12,-4 -19,7 -15,29c0,4 -8,5 -19,3c-11,-2 -20,0 -20,4c0,13 -39,21 -46,10c-3,-5 -10,-7 -15,-3c-5,3 -16,1 -24,-6c-10,-8 -15,-8 -20,1c-6,8 -10,7 -16,-2c-8,-12 -11,-11 -19,1c-8,12 -10,12 -10,1c0,-11 -3,-11 -15,-1c-13,10 -15,9 -15,-10c0,-13 -3,-20 -6,-17c-4,3 -15,2 -25,-3c-13,-8 -20,-6 -28,7c-6,11 -11,13 -11,5c0,-7 -4,-10 -10,-7c-5,3 -10,0 -10,-8c0,-19 -29,-17 -34,2c-3,9 -7,32 -11,51c-4,19 -8,42 -11,50c-3,11 4,16 24,17c15,0 39,4 55,7c16,4 27,2 27,-4c0,-5 5,-10 11,-10c5,0 8,4 4,9c-3,5 -1,12 4,15c5,3 12,-2 16,-12c6,-15 8,-14 16,7c6,15 14,21 24,17c8,-3 15,-2 15,2c0,5 10,9 23,9c12,1 36,3 52,5c17,3 36,0 43,-5c8,-6 12,-5 12,2c0,7 10,11 23,9c12,-2 21,-9 20,-15c-2,-7 6,-10 17,-8c18,3 25,-6 21,-28c-1,-5 3,-6 8,-3c5,3 14,0 20,-8c7,-8 27,-13 46,-12c19,1 35,-3 35,-9c0,-5 5,-2 11,8c6,10 15,14 22,10c18,-11 46,-11 44,1c-1,5 10,16 26,23c15,8 27,20 27,28c0,8 8,12 19,10c15,-3 18,1 14,12c-4,10 -2,14 4,10c5,-3 23,-3 39,2c36,10 64,3 64,-15zm4,-139c-4,-8 -14,-15 -23,-15c-14,1 -13,3 3,15c25,19 27,19 20,0z"/>
    <path fill="#7f7f7f" stroke="#b2b2b2" id="svg_6" d="m11804.27146,-6468.356403c-30,-47 1,-89 53,-70c20,7 29,17 31,38c4,33 -5,45 -41,52c-20,3 -30,-2 -43,-20z"/>
    <path fill="#7f7f7f" stroke="#b2b2b2" id="svg_7" d="m12366.27146,-6441.356403c-4,-5 -13,-8 -19,-8c-15,0 -18,-44 -6,-67c13,-24 46,-23 54,2c3,11 13,20 21,20c18,0 18,10 -2,38c-15,22 -35,28 -48,15z"/>
    <path fill="#7f7f7f" stroke="#b2b2b2" id="svg_8" d="m12733.27146,-7457.356403c-40,-46 13,-98 77,-76c25,9 29,15 24,33c-20,66 -64,85 -101,43zm23,-42c1,-8 -2,-13 -7,-9c-5,3 -9,12 -9,21c0,19 13,9 16,-12z"/>
    <path fill="#7f7f7f" stroke="#b2b2b2" id="svg_9" d="m12481.27146,-7490.356403c0,-11 3,-14 6,-6c3,7 2,16 -1,19c-3,4 -6,-2 -5,-13z"/>
    <path fill="#7f7f7f" stroke="#b2b2b2" id="svg_10" d="m12950.27146,-7804.356403c-8,-5 -15,-15 -15,-22c0,-7 -9,-12 -20,-10c-15,2 -12,-4 15,-27c39,-34 64,-38 86,-17c20,20 18,29 -14,59c-32,30 -31,30 -52,17zm24,-51c-6,-11 -24,-2 -24,11c0,5 7,7 15,4c8,-4 12,-10 9,-15z"/>
    <path fill="#7f7f7f" stroke="#b2b2b2" id="svg_11" d="m10913.27146,-6169.356403c-68,-31 -103,-66 -103,-103c0,-22 -10,-37 -41,-62l-41,-33l6,-67l7,-67l-81,-5c-71,-4 -92,-10 -168,-49c-159,-80 -192,-127 -192,-266c0,-48 -4,-93 -8,-99c-4,-7 -24,-19 -44,-27c-20,-9 -43,-28 -51,-44c-9,-16 -32,-36 -55,-46c-45,-20 -65,-56 -61,-110c2,-24 -3,-42 -15,-56c-16,-17 -18,-32 -14,-84c6,-76 37,-141 86,-184l36,-32l-47,-43c-26,-25 -47,-53 -47,-62c0,-10 -16,-36 -35,-57c-39,-44 -46,-89 -19,-127c11,-16 13,-34 9,-65c-6,-37 -3,-48 19,-74c15,-18 40,-34 56,-38c18,-4 36,-19 49,-40c20,-34 20,-34 0,-59c-10,-13 -19,-38 -19,-55c0,-16 -11,-46 -24,-66c-50,-72 -42,-193 17,-284c18,-27 41,-63 52,-80c23,-36 105,-81 147,-81c25,0 27,-3 22,-28c-3,-16 1,-45 10,-66c11,-27 13,-43 6,-56c-19,-35 -11,-69 25,-109c19,-21 35,-42 35,-46c0,-4 7,-22 16,-41c13,-26 26,-36 58,-45c22,-6 54,-21 71,-33c40,-28 125,-28 181,0l40,21l30,-26c20,-16 34,-39 38,-63c8,-45 55,-88 97,-88c20,0 38,-10 58,-32c27,-30 31,-32 107,-32c90,-1 123,14 216,96l53,46l60,-20c44,-15 75,-19 115,-15c168,17 237,84 274,267c23,116 6,172 -90,292c-30,37 -54,74 -54,83c0,9 8,29 18,43c36,52 45,90 40,171c-3,59 -10,85 -25,105c-16,20 -20,35 -16,66c8,58 -3,89 -41,111c-22,13 -36,30 -39,48c-3,16 -17,42 -31,57l-24,29l21,40c18,35 21,55 19,154c-1,100 -4,119 -23,144c-15,21 -20,39 -16,65c6,49 -25,128 -68,172c-33,34 -33,37 -28,100c3,36 0,114 -6,173c-10,103 -14,114 -66,215c-56,106 -56,107 -49,172c3,36 10,84 14,106c10,57 -7,169 -34,229c-48,106 -102,144 -242,170c-101,20 -129,18 -191,-10zm150,-383c15,7 22,7 28,-3c5,-8 9,-10 9,-4c0,5 14,-6 31,-24c23,-26 27,-36 17,-42c-9,-6 -6,-9 11,-9c23,0 23,-1 7,-13c-16,-12 -16,-14 -2,-26c12,-10 13,-17 4,-37c-7,-14 -17,-23 -24,-20c-6,2 -16,-6 -23,-20c-8,-18 -19,-24 -40,-24c-41,0 -83,20 -77,37c3,7 -1,13 -9,13c-18,0 -20,16 -3,26c7,5 4,10 -11,16c-13,5 -19,12 -15,19c4,7 0,17 -9,24c-14,10 -14,14 0,43c12,25 19,30 29,21c10,-8 16,-5 26,10c8,13 16,17 22,11c5,-5 17,-5 29,2zm-446,-197c21,1 30,-2 26,-10c-3,-9 4,-11 21,-8c17,4 26,1 26,-8c0,-8 6,-5 15,7c8,11 15,14 15,7c0,-18 30,-16 30,1c0,9 17,16 46,21c39,5 49,3 65,-14c11,-12 25,-21 30,-21c6,0 9,-7 5,-15c-4,-10 1,-15 15,-15c11,0 18,-4 15,-9c-5,-7 42,-60 47,-54c5,6 47,-11 47,-19c0,-5 5,-6 10,-3c5,3 10,2 10,-3c0,-11 63,-11 71,0c8,12 59,20 59,9c0,-13 34,-8 43,7c15,23 25,12 32,-35c3,-27 9,-58 12,-70c4,-18 1,-21 -21,-19c-14,2 -26,-1 -26,-6c0,-5 -5,-6 -10,-3c-5,3 -10,2 -10,-4c0,-14 -30,-7 -41,10c-7,11 -9,11 -9,-3c0,-10 -4,-18 -10,-18c-5,0 -10,5 -10,10c0,18 -18,11 -25,-9c-4,-14 -13,-18 -30,-15c-13,2 -27,0 -30,-6c-10,-16 -45,-11 -52,8c-4,9 -15,24 -25,33c-10,9 -15,19 -11,23c3,3 -2,6 -11,6c-12,0 -16,5 -12,15c5,13 0,17 -21,14c-3,0 -10,6 -15,15c-5,9 -14,14 -19,10c-5,-3 -8,0 -7,8c2,7 -6,13 -17,14c-40,2 -46,4 -40,14c3,6 -3,10 -14,10c-11,0 -23,-5 -26,-10c-4,-7 -13,-7 -25,0c-15,8 -25,4 -50,-20c-16,-16 -30,-34 -30,-39c0,-6 -7,-8 -16,-4c-10,4 -17,-1 -21,-16c-3,-11 -8,-21 -12,-22c-3,0 -17,-3 -31,-5c-33,-6 -83,15 -76,32c3,8 -1,14 -11,14c-13,0 -13,3 -3,15c9,11 9,15 1,15c-20,0 -30,43 -14,61c8,9 15,26 16,38c1,11 7,21 14,21c7,0 10,7 7,15c-7,18 7,20 24,3c7,-7 13,-9 13,-5c1,4 3,12 4,17c1,6 3,15 4,21c1,8 5,8 14,1c6,-5 26,-9 44,-7zm707,-353c3,-20 6,-55 6,-77c0,-39 -1,-40 -36,-41c-20,-1 -39,-5 -43,-10c-10,-15 -41,-16 -41,-2c0,7 -6,4 -12,-6c-11,-19 -11,-19 -24,-1c-10,14 -14,15 -14,4c0,-12 -2,-12 -10,1c-7,11 -10,11 -10,2c0,-7 -4,-10 -10,-7c-6,4 -7,-1 -3,-11c5,-13 3,-16 -10,-11c-9,3 -17,2 -17,-3c0,-5 -7,-7 -15,-4c-8,4 -15,2 -15,-3c0,-5 -18,-9 -41,-8c-22,1 -43,-3 -46,-8c-3,-5 -9,-3 -14,4c-7,11 -9,9 -9,-5c0,-11 -3,-16 -7,-13c-11,12 -31,-13 -26,-33c3,-12 0,-20 -6,-20c-7,0 -9,-4 -6,-10c3,-5 1,-10 -4,-10c-6,0 -11,-7 -11,-15c0,-19 -49,-52 -58,-39c-10,14 -31,11 -41,-5c-5,-7 -14,-10 -20,-7c-6,4 -14,0 -18,-10c-5,-14 -8,-15 -17,-3c-17,22 -44,20 -39,-2c5,-17 -9,-25 -39,-20c-4,0 -10,-9 -13,-20c-4,-13 -12,-18 -22,-15c-9,4 -17,-1 -20,-14c-6,-23 -42,-35 -77,-26c-19,5 -24,12 -24,35c1,28 4,30 41,29c45,0 59,15 50,52c-8,32 -20,40 -60,40c-26,0 -34,-5 -39,-24c-9,-37 -31,-21 -28,21c3,51 23,86 41,71c11,-9 13,-8 11,3c-2,8 3,13 10,11c6,-1 12,6 12,15c0,14 2,15 9,4c7,-10 13,-11 30,-2c15,8 21,9 21,1c0,-6 4,-8 10,-5c5,3 7,0 4,-8c-3,-9 2,-13 18,-12c13,1 28,-2 34,-7c8,-5 14,-2 18,9c6,14 9,15 16,3c12,-19 43,-23 36,-4c-3,9 -1,12 4,9c6,-3 10,-2 10,2c0,5 10,9 22,10c11,1 24,7 28,13c4,7 11,12 16,13c5,1 8,8 6,15c-2,7 3,12 10,11c30,-4 38,2 33,24c-3,16 4,28 26,46c17,13 37,24 45,24c8,0 14,5 14,10c0,5 7,7 15,3c8,-3 15,0 16,7c0,9 2,8 6,-1c4,-10 8,-10 20,-1c12,10 16,10 24,-2c7,-12 9,-12 9,1c0,12 2,12 9,2c6,-11 11,-10 25,3c9,9 16,13 16,8c0,-4 7,1 15,11c13,17 15,17 21,3c8,-23 44,-17 44,7c0,11 3,16 6,13c4,-3 15,-2 25,3c12,7 20,6 24,-1c4,-6 13,-8 20,-5c8,3 16,0 19,-7c2,-7 5,-3 5,8c1,13 8,21 20,22c14,1 20,-7 25,-35zm76,-401c0,-9 -9,-12 -30,-9c-16,3 -30,1 -30,-4c0,-4 -13,-8 -30,-8c-17,0 -30,5 -30,12c0,6 -6,3 -14,-7c-8,-11 -27,-20 -42,-21c-16,-1 -32,-3 -35,-3c-4,-1 -10,-12 -13,-26c-4,-14 -11,-23 -17,-20c-5,4 -19,-5 -29,-18c-17,-21 -27,-25 -62,-22c-24,2 -44,9 -46,14c-2,6 -8,9 -13,5c-13,-8 -11,10 4,25c10,10 8,11 -7,5c-14,-5 -17,-3 -14,7c3,8 -2,22 -10,32c-17,19 -23,67 -9,67c4,0 5,5 2,10c-3,6 -1,10 4,10c6,0 11,7 11,16c0,14 2,15 17,3c15,-12 16,-12 10,3c-4,12 -2,15 9,11c9,-3 14,1 14,13c0,15 2,16 9,5c8,-12 12,-12 25,-2c16,14 60,5 51,-10c-4,-5 2,-10 12,-10c65,-5 89,-4 100,4c7,5 19,7 28,4c8,-4 17,-2 20,2c3,5 22,9 42,9c22,0 39,5 42,14c4,12 30,-80 31,-111zm-895,39c3,-5 1,-10 -4,-10c-6,0 -11,5 -11,10c0,6 2,10 4,10c3,0 8,-4 11,-10zm952,-246c-6,-6 -45,-14 -90,-18c-15,-2 -30,-6 -33,-9c-4,-4 -12,-3 -18,0c-19,13 -54,11 -50,-2c6,-14 -74,-39 -128,-40c-20,0 -36,-2 -36,-5c2,-22 -4,-31 -17,-27c-8,4 -24,-6 -38,-23c-14,-16 -28,-26 -31,-23c-3,4 -6,1 -6,-5c0,-6 -7,-9 -17,-5c-11,4 -14,3 -9,-5c12,-19 -3,-35 -20,-21c-12,10 -13,9 -9,-4c4,-8 2,-18 -4,-22c-6,-3 -14,1 -17,10c-5,13 -9,12 -25,-6c-11,-12 -19,-19 -19,-14c0,4 -7,2 -16,-6c-13,-10 -17,-10 -24,0c-5,9 -9,10 -14,2c-4,-6 -12,-9 -17,-6c-5,4 -9,-1 -9,-9c0,-9 -3,-15 -7,-15c-27,4 -42,-4 -47,-27c-6,-21 -10,-24 -21,-14c-11,10 -15,7 -20,-13c-8,-30 -18,-35 -67,-32c-44,3 -73,26 -55,44c8,8 5,11 -13,11c-20,0 -22,2 -10,10c13,8 13,11 -2,22c-19,15 -32,68 -17,68c6,0 7,5 4,10c-3,6 -1,10 4,10c6,0 11,7 11,15c0,9 6,15 12,14c28,-3 38,2 38,19c0,12 2,14 8,4c6,-9 16,-10 33,-4c18,7 27,5 37,-7c10,-12 12,-12 6,-1c-5,10 0,9 14,-4c12,-11 22,-16 22,-11c0,4 6,2 14,-4c11,-9 15,-8 20,5c5,13 9,15 18,6c17,-17 48,-15 48,4c0,10 6,14 15,10c8,-3 15,-1 15,5c0,6 4,8 9,5c5,-3 14,1 21,10c7,8 19,13 27,10c8,-3 16,1 20,9c4,11 9,13 18,5c15,-12 41,13 30,30c-4,7 2,9 19,6c16,-3 26,0 26,7c0,15 54,67 69,67c6,0 11,-6 11,-12c0,-7 5,-5 11,5c8,14 14,16 25,6c8,-6 21,-8 31,-3c10,4 22,8 26,8c4,1 12,8 17,16c8,12 10,12 16,-3c4,-12 10,-15 19,-7c6,5 15,7 18,3c4,-3 7,2 7,12c0,10 3,15 6,12c4,-3 15,-2 26,4c14,7 23,7 34,-2c11,-9 14,-9 14,2c0,11 2,11 10,-1c6,-9 10,-10 10,-3c0,6 10,23 23,37l22,25l14,-65c8,-35 11,-67 8,-70zm62,-321c13,-68 14,-86 2,-78c-5,3 -12,1 -16,-5c-4,-6 -11,-8 -16,-5c-5,4 -9,1 -9,-5c0,-7 -7,-10 -15,-7c-8,4 -17,2 -20,-2c-3,-5 -18,-8 -35,-7c-18,1 -32,-4 -35,-12c-4,-11 -8,-12 -20,-2c-8,7 -15,9 -15,4c0,-5 -5,-2 -10,6c-7,11 -10,11 -10,2c0,-7 -4,-10 -10,-7c-5,3 -10,-2 -10,-11c0,-10 -3,-14 -7,-11c-3,4 -12,2 -20,-4c-7,-6 -13,-8 -13,-4c0,4 -7,2 -15,-5c-8,-7 -15,-9 -15,-5c0,4 -6,3 -12,-2c-7,-6 -25,-10 -40,-9c-14,1 -25,-1 -22,-5c2,-4 -4,-10 -13,-13c-12,-5 -14,-9 -5,-18c17,-17 15,-31 -4,-24c-8,3 -13,2 -10,-3c3,-5 -1,-11 -9,-14c-8,-4 -12,-15 -10,-26c3,-14 -1,-18 -11,-14c-19,7 -44,-15 -44,-39c0,-17 -3,-18 -15,-8c-12,10 -15,10 -15,0c0,-7 -6,-10 -14,-7c-7,3 -19,0 -25,-6c-8,-8 -14,-8 -19,-2c-10,15 -31,13 -41,-4c-5,-7 -13,-11 -19,-7c-6,3 -13,2 -17,-4c-11,-17 -23,-11 -27,13c-2,12 -7,20 -12,19c-5,-2 -13,2 -17,10c-6,9 -9,7 -9,-9c0,-13 -6,-24 -12,-24c-60,-5 -83,-11 -86,-19c-2,-6 -8,-7 -13,-4c-6,3 -19,-5 -29,-19c-21,-27 -68,-31 -105,-9c-18,10 -17,11 13,12c25,0 35,6 42,24c5,13 14,27 19,31c17,10 13,36 -6,51c-29,22 -57,16 -78,-16c-12,-18 -23,-26 -29,-20c-15,15 -17,49 -4,73c7,12 11,25 10,30c-3,11 13,8 27,-5c10,-11 12,-10 9,2c-2,8 2,14 9,13c8,-2 10,4 6,15c-6,15 -5,15 10,4c9,-8 21,-11 26,-7c15,9 73,-24 65,-37c-4,-6 -3,-8 4,-4c6,3 13,2 16,-2c6,-10 36,-9 54,2c7,4 20,2 29,-6c14,-11 17,-11 21,1c4,11 6,11 13,0c7,-11 9,-11 9,1c0,18 122,62 146,53c8,-3 14,0 14,6c0,6 12,16 26,21c14,6 23,14 19,19c-3,6 4,15 15,21c15,8 18,15 11,27c-6,11 -4,21 4,30c7,7 15,18 17,24c5,14 100,20 109,7c3,-5 13,-2 22,7c9,9 21,13 27,10c6,-3 13,1 17,11c6,16 7,15 20,-2c10,-13 13,-14 13,-3c0,12 2,12 10,-1c7,-11 10,-11 10,-2c0,7 5,10 10,7c6,-3 10,1 10,9c0,9 7,16 15,16c8,0 15,4 15,8c0,11 41,9 59,-2c9,-6 18,-4 25,6c10,13 30,25 47,27c3,1 11,-25 18,-56zm85,-479l14,-61l-42,-2c-120,-5 -154,-8 -164,-15c-7,-4 -12,-2 -12,4c0,6 -10,4 -24,-6c-14,-8 -27,-15 -31,-14c-11,2 -84,-23 -83,-29c2,-22 -4,-32 -16,-28c-15,6 -40,-16 -30,-25c3,-3 -8,-10 -23,-16c-22,-7 -39,-5 -73,9c-25,10 -41,18 -36,18c5,1 3,8 -4,16c-7,8 -9,15 -5,15c4,0 2,7 -6,16c-11,14 -13,32 -10,90c1,8 5,12 11,9c6,-4 7,1 3,11c-5,13 -2,15 15,10c14,-5 25,-1 35,14c11,16 16,18 20,8c4,-8 8,-9 14,-3c11,13 33,17 33,6c0,-4 45,-8 100,-8c55,0 100,4 100,9c0,5 5,6 11,2c6,-3 15,0 20,7c7,12 9,11 9,-1c0,-11 2,-12 8,-2c11,16 89,24 112,12c14,-8 19,-5 25,13c8,26 10,21 29,-59zm56,-183c6,-31 13,-62 16,-70c3,-8 -1,-11 -11,-7c-8,3 -15,2 -15,-2c0,-4 -15,-9 -32,-11c-18,-1 -42,-4 -53,-5c-11,-1 -25,2 -32,7c-7,5 -19,1 -32,-12c-12,-12 -25,-21 -31,-21c-16,0 -23,-2 -47,-11c-16,-6 -23,-5 -24,4c0,9 -2,9 -6,0c-2,-7 -9,-13 -14,-13c-6,0 -7,4 -4,10c3,6 -1,7 -9,4c-14,-6 -20,-25 -19,-61c1,-7 -3,-13 -9,-13c-5,0 -6,-5 -2,-12c5,-8 2,-9 -9,-5c-11,4 -17,1 -17,-8c0,-19 -42,-48 -51,-34c-9,16 -22,11 -36,-14c-8,-15 -12,-17 -13,-7c0,13 -2,13 -9,1c-11,-17 -41,-24 -41,-10c0,5 -4,9 -10,9c-5,0 -10,-7 -10,-15c0,-8 -5,-15 -10,-15c-6,0 -16,-11 -22,-25c-6,-14 -17,-24 -24,-21c-7,3 -16,-4 -19,-14c-4,-11 -18,-23 -32,-26c-30,-8 -106,13 -98,26c4,6 1,10 -5,10c-7,0 -10,6 -7,13c2,6 -1,19 -9,27c-19,22 -25,68 -10,82c7,7 14,18 17,23c2,6 10,10 17,10c8,0 19,8 26,17c9,12 16,14 23,7c8,-8 17,-8 32,0c15,8 21,9 21,1c0,-6 5,-8 12,-4c8,5 9,2 4,-11c-6,-16 -4,-16 10,-4c14,11 18,11 22,1c3,-10 7,-10 18,-1c10,8 14,8 14,0c0,-6 7,-11 16,-11c8,0 12,5 9,10c-6,10 51,37 68,32c4,-1 7,5 7,13c0,8 6,12 13,9c8,-3 20,2 27,10c10,13 9,17 -4,22c-9,3 -13,10 -10,15c3,5 10,7 15,4c5,-4 9,2 9,12c0,12 8,19 21,20c24,2 49,21 49,37c0,6 16,12 35,12c19,1 35,-3 35,-7c0,-18 18,-8 23,12c4,15 11,20 21,16c11,-4 16,-1 16,11c1,16 2,16 14,-1c10,-13 16,-15 21,-7c6,9 10,9 16,-1c6,-10 9,-7 9,10c0,13 3,21 6,18c4,-3 15,-2 25,3c12,7 20,7 24,0c9,-15 35,-12 35,3c0,8 7,14 15,14c9,0 18,-19 25,-56z"/>
    <path fill="#7f7f7f" stroke="#b2b2b2" id="svg_12" d="m11057.27146,-6620.356403c-22,-12 -27,-21 -25,-41c4,-35 29,-50 65,-37c31,11 41,41 23,73c-13,25 -25,26 -63,5z"/>
    <path fill="#7f7f7f" stroke="#b2b2b2" id="svg_13" d="m10555.27146,-6867.356403c-14,-11 -16,-20 -10,-43c4,-16 10,-23 12,-16c3,6 8,10 13,7c5,-3 20,-1 34,5c19,7 26,17 26,35c0,21 -5,25 -28,25c-16,0 -36,-6 -47,-13z"/>
    <path fill="#7f7f7f" stroke="#b2b2b2" id="svg_14" d="m11007.27146,-7470.356403c-20,-11 -27,-21 -24,-38c6,-49 50,-74 86,-49c25,17 28,65 5,87c-19,20 -31,20 -67,0z"/>
    <path fill="#7f7f7f" stroke="#b2b2b2" id="svg_15" d="m10597.27146,-7881.356403c-4,-3 -7,-19 -7,-34c0,-48 63,-76 104,-46c18,13 17,15 -5,50c-19,29 -30,37 -55,37c-17,0 -34,-3 -37,-7z"/>
    <path fill="#7f7f7f" stroke="#b2b2b2" id="svg_16" d="m11016.27146,-8240.356403c-4,-10 -1,-14 6,-12c15,5 23,28 10,28c-5,0 -13,-7 -16,-16z"/>
    <path fill="#7f7f7f" stroke="#b2b2b2" id="svg_17" d="m11129.27146,-8532.356403c-20,-2 -28,-10 -32,-30c-7,-35 18,-64 52,-60c26,3 53,41 45,62c-7,19 -37,31 -65,28z"/>
    <path fill="#7f7f7f" stroke="#b2b2b2" id="svg_18" d="m10936.27146,-8939.356403c-20,-20 -20,-25 0,-53c20,-29 45,-28 74,3c19,20 22,30 14,43c-15,23 -67,27 -88,7z"/>
   </g>
  </g>
 </g>
</svg>