<?xml version="1.0" standalone="no"?>
<!DOCTYPE svg PUBLIC "-//W3C//DTD SVG 20010904//EN"
 "http://www.w3.org/TR/2001/REC-SVG-20010904/DTD/svg10.dtd">
<svg version="1.0" xmlns="http://www.w3.org/2000/svg"
 width="362.000000pt" height="362.000000pt" viewBox="0 0 362.000000 362.000000"
 preserveAspectRatio="xMidYMid meet">
<metadata>
Created by potrace 1.11, written by Peter Selinger 2001-2013
</metadata>
<g transform="translate(0.000000,362.000000) scale(0.100000,-0.100000)"
fill="#000000" stroke="none">
<path d="M1737 3446 c-63 -26 -133 -79 -171 -129 -39 -51 -70 -178 -61 -251 8
-79 30 -126 94 -205 46 -57 51 -68 51 -113 0 -27 5 -58 10 -69 8 -14 7 -27 -5
-48 -21 -41 -19 -70 9 -115 19 -32 22 -45 15 -70 -14 -47 -12 -53 26 -95 23
-25 35 -48 35 -67 0 -16 7 -40 16 -52 14 -21 14 -27 -6 -85 -24 -69 -22 -109
11 -204 10 -31 19 -68 19 -82 1 -36 41 -130 74 -173 15 -20 47 -46 72 -57 52
-25 55 -41 14 -88 -37 -42 -42 -73 -18 -121 9 -18 9 -28 0 -42 -31 -50 3 -173
80 -286 28 -42 63 -83 77 -92 14 -9 27 -17 29 -18 2 -1 -4 -19 -13 -40 -9 -22
-16 -64 -16 -94 0 -30 -5 -71 -10 -91 -9 -29 -8 -42 5 -68 10 -18 24 -35 32
-38 8 -3 14 -19 14 -42 0 -54 20 -84 67 -101 23 -8 57 -32 75 -53 34 -39 78
-56 147 -57 47 0 110 32 171 87 l50 45 51 -21 c44 -19 61 -21 132 -16 113 9
151 21 193 57 47 42 87 112 82 143 -4 16 3 36 19 57 18 25 23 43 21 78 l-2 45
42 -4 c29 -2 53 4 76 17 18 11 50 25 72 32 43 14 73 44 74 74 0 11 14 44 32
75 28 48 32 65 32 121 -1 77 -30 152 -66 171 -31 16 -38 28 -38 67 0 30 2 32
34 32 88 0 171 193 121 280 -8 14 -14 43 -15 64 0 32 -7 46 -40 77 -22 21 -40
46 -40 56 0 9 -25 41 -55 70 -55 51 -56 53 -41 80 45 87 45 245 0 312 -32 48
-53 63 -147 101 -70 28 -72 30 -69 62 10 114 7 166 -13 188 -14 16 -20 36 -20
70 0 55 -32 100 -71 100 -13 0 -29 7 -36 16 -53 66 -68 76 -106 71 -20 -3 -48
-8 -62 -12 -14 -3 -37 -2 -53 4 -21 8 -27 17 -27 40 0 20 -10 39 -30 58 -16
15 -35 46 -42 68 -15 46 -82 97 -151 116 -51 13 -238 2 -286 -17 -18 -8 -37
-14 -41 -14 -4 0 -21 22 -38 50 -22 35 -52 63 -101 95 -124 80 -185 91 -284
51z m173 -367 c0 -5 5 -7 10 -4 6 3 10 -1 10 -9 0 -9 6 -15 13 -13 7 1 11 -7
10 -20 -2 -16 3 -23 15 -23 13 0 14 -2 3 -9 -11 -7 -10 -11 4 -19 17 -9 16
-10 -5 -17 -20 -6 -21 -9 -9 -19 8 -6 14 -17 13 -23 -1 -7 -2 -18 -3 -24 0 -6
-9 -8 -18 -5 -13 4 -23 -3 -34 -22 -11 -20 -24 -28 -42 -28 -15 0 -27 4 -27 9
0 4 -4 6 -10 2 -5 -3 -18 3 -30 15 -11 11 -25 20 -31 20 -6 0 -7 5 -2 13 13
20 12 37 -2 37 -18 0 -23 29 -13 68 6 23 14 32 23 28 10 -3 12 0 8 12 -6 15
-5 15 10 3 15 -12 17 -11 17 8 0 18 4 21 29 16 17 -3 33 -1 36 5 8 13 25 13
25 -1z m533 -7 c16 8 22 8 25 -1 2 -6 8 -9 13 -5 5 3 9 -2 9 -10 0 -9 6 -15
13 -13 6 1 11 -6 11 -15 -1 -10 3 -18 8 -18 6 0 8 -7 4 -15 -3 -8 0 -15 7 -15
7 0 6 -4 -3 -10 -12 -8 -13 -13 -2 -30 7 -11 8 -20 3 -20 -5 0 -13 -9 -16 -21
-4 -12 -12 -18 -21 -15 -8 3 -13 0 -11 -7 1 -7 -3 -11 -10 -10 -7 2 -10 -4 -7
-12 8 -21 -37 -29 -81 -15 -19 6 -33 15 -30 20 2 4 -11 10 -31 13 -27 5 -44 1
-70 -16 -18 -12 -34 -28 -34 -36 0 -8 -6 -11 -16 -7 -8 3 -12 2 -9 -4 3 -6 1
-10 -5 -10 -7 0 -9 -8 -5 -20 4 -14 2 -20 -7 -18 -7 2 -12 -3 -11 -9 2 -7 -2
-13 -8 -13 -6 0 -9 -9 -6 -20 3 -11 1 -20 -5 -20 -5 0 -6 -4 -3 -10 3 -5 2
-10 -4 -10 -6 0 -8 -7 -5 -15 4 -10 0 -15 -14 -15 -14 0 -19 -6 -18 -17 4 -22
-28 -45 -60 -45 -13 0 -24 -5 -24 -11 0 -7 -4 -7 -12 1 -17 17 -51 16 -45 -2
4 -10 -4 -15 -24 -18 -16 -3 -29 0 -29 5 0 5 -6 4 -14 -2 -11 -9 -15 -9 -19 1
-4 9 -6 8 -6 -3 -1 -9 -8 -16 -16 -16 -9 0 -18 19 -26 56 -6 30 -14 61 -16 68
-4 9 0 11 11 7 9 -3 16 -2 16 2 0 14 73 14 83 1 7 -9 10 -9 14 0 3 8 14 11 27
7 16 -4 27 2 42 20 10 14 24 26 31 26 7 0 10 7 7 15 -4 11 -2 13 9 9 20 -7 32
13 17 31 -10 12 -10 15 0 15 19 0 50 44 37 52 -9 6 -8 8 1 8 7 0 10 5 7 10 -3
6 -2 10 3 10 6 0 8 10 4 22 -4 17 -2 20 11 15 11 -4 14 -2 11 8 -5 13 32 45
58 49 7 1 18 5 25 9 6 4 14 3 18 -3 9 -15 35 -12 35 4 0 8 16 20 34 27 19 7
32 17 29 23 -4 5 1 7 11 3 13 -5 19 -1 23 14 3 12 11 18 19 15 8 -3 14 0 15 7
0 9 2 9 6 0 3 -10 10 -10 26 -1z m263 -502 c8 0 14 -4 14 -10 0 -5 7 -10 15
-10 8 0 15 -4 15 -9 0 -5 -7 -14 -15 -21 -10 -9 -15 -9 -15 -1 0 12 -39 15
-56 3 -26 -17 -33 -46 -18 -74 17 -33 50 -37 80 -10 18 17 20 17 37 0 9 -10
13 -18 7 -18 -5 0 -9 -3 -9 -7 4 -23 -3 -35 -16 -29 -8 3 -20 -3 -27 -13 -25
-34 -50 -41 -89 -22 -50 25 -78 31 -85 20 -3 -6 -11 -6 -17 -1 -16 12 -36 9
-45 -5 -4 -7 -17 -14 -27 -16 -11 -1 -24 -5 -30 -8 -5 -3 -21 -5 -35 -4 -14 1
-38 2 -53 3 -16 1 -25 6 -22 12 3 6 -1 10 -10 10 -11 0 -15 5 -11 15 3 9 0 15
-10 15 -9 0 -12 5 -8 13 5 7 1 7 -10 -2 -15 -13 -19 -13 -27 0 -5 8 -9 10 -9
5 0 -5 -7 -3 -15 4 -8 7 -15 8 -15 2 0 -12 -42 -24 -50 -14 -8 11 -40 11 -40
0 0 -6 -7 -8 -15 -5 -8 4 -17 2 -20 -3 -6 -9 -24 -8 -42 3 -9 6 -13 2 -13 -10
0 -15 -8 -19 -40 -19 -22 -1 -40 3 -40 8 0 9 -22 7 -30 -3 -3 -4 -14 -9 -26
-13 -19 -6 -22 0 -35 62 l-15 69 28 -3 c15 -2 33 2 40 9 16 15 48 18 48 4 0
-5 9 -2 20 8 18 16 20 16 20 2 0 -23 27 -22 34 1 3 10 14 18 23 18 26 2 87 14
92 19 2 3 10 0 17 -6 8 -7 14 -7 19 1 5 8 11 7 23 -2 12 -10 16 -10 19 0 7 19
43 15 43 -5 0 -13 3 -14 11 -6 9 9 18 4 36 -18 19 -22 28 -27 38 -19 10 8 15
6 19 -7 7 -20 56 -30 56 -11 0 6 3 8 7 5 3 -4 13 -2 20 5 11 9 17 9 25 -3 8
-12 10 -12 15 0 5 11 7 11 14 0 7 -11 9 -9 9 6 0 14 7 21 21 22 11 1 28 10 37
21 10 10 23 17 30 15 7 -3 12 4 12 14 0 16 6 19 29 15 17 -2 32 1 37 9 6 10 9
10 12 1 2 -7 10 -12 18 -12z m-407 -289 c8 -1 11 -7 7 -16 -3 -10 -1 -15 7
-13 7 2 14 -1 16 -7 2 -5 7 -19 13 -30 8 -17 7 -18 -4 -4 -24 28 -58 30 -84 4
-29 -30 -31 -56 -3 -81 24 -22 47 -12 67 29 7 15 21 27 30 27 16 -1 16 -1 0
-11 -22 -12 -23 -29 -3 -29 10 0 15 -7 13 -17 -4 -21 -20 -42 -29 -37 -3 2
-16 -8 -27 -21 -12 -14 -30 -25 -40 -25 -27 0 -83 21 -78 28 2 4 -18 7 -46 7
-30 -1 -53 -6 -58 -14 -4 -8 -15 -11 -24 -8 -9 4 -16 2 -16 -3 0 -12 -22 -9
-32 5 -5 6 -8 5 -8 -2 0 -8 -9 -11 -22 -10 -17 3 -25 15 -35 53 -19 73 -17 93
7 87 11 -3 26 0 34 6 8 7 31 11 52 10 70 -4 93 1 116 24 13 13 30 21 37 19 10
-3 12 1 7 13 -4 12 -2 16 7 12 8 -3 19 -2 26 2 6 4 22 6 34 5 12 -1 28 -3 36
-3z m563 -201 c6 0 8 -7 4 -15 -3 -8 0 -14 7 -12 7 1 12 -5 12 -13 0 -8 6 -19
13 -23 7 -5 10 -12 7 -18 -4 -5 0 -9 7 -9 10 0 10 -2 -1 -9 -9 -6 -11 -15 -6
-27 5 -11 9 -23 9 -29 2 -13 -17 -34 -25 -29 -3 2 -16 -8 -27 -21 -12 -14 -30
-25 -40 -25 -27 0 -82 21 -82 31 0 4 -7 6 -15 3 -9 -4 -15 0 -15 7 0 9 -5 7
-12 -5 -11 -19 -11 -19 -24 -1 -8 10 -14 14 -14 7 0 -6 -9 -9 -21 -7 -15 3
-19 0 -15 -10 4 -11 -3 -15 -27 -17 -71 -3 -111 0 -115 10 -2 6 -10 8 -18 5
-8 -3 -14 0 -14 7 0 6 -4 9 -9 6 -5 -4 -11 0 -14 6 -3 9 -10 7 -21 -7 -14 -19
-15 -19 -16 -1 0 12 -5 16 -15 13 -8 -4 -17 -1 -21 5 -4 7 -9 6 -15 -3 -7 -11
-12 -12 -28 -2 -15 10 -21 10 -25 0 -3 -9 -7 -8 -15 3 -10 13 -11 13 -11 0 0
-13 -1 -13 -10 0 -8 12 -10 12 -16 -3 -4 -10 -13 -16 -21 -13 -7 3 -17 -2 -20
-11 -6 -14 -7 -14 -19 1 -8 11 -14 13 -19 6 -3 -5 -11 -8 -16 -5 -5 4 -9 0 -9
-8 0 -21 -44 -38 -60 -24 -10 9 -14 9 -18 -2 -3 -10 -8 -7 -18 10 -9 17 -13
19 -14 8 0 -9 -8 -19 -19 -22 -16 -4 -20 4 -30 51 -14 68 -14 85 -1 77 6 -3
10 -3 10 2 0 4 12 9 28 9 33 1 83 11 89 18 3 3 13 -2 22 -11 15 -15 16 -15 20
2 2 14 5 15 12 4 7 -11 9 -11 9 4 0 10 8 17 19 17 10 0 37 7 60 15 31 10 41
11 41 2 0 -7 3 -8 8 -2 11 15 52 14 52 -2 0 -8 4 -12 9 -8 5 3 13 0 16 -5 5
-7 12 -5 21 7 13 17 13 17 14 -1 0 -11 5 -16 14 -13 7 3 19 0 25 -6 8 -8 14
-8 22 0 13 13 49 5 49 -10 0 -7 4 -7 12 1 18 18 28 15 29 -10 1 -19 2 -19 6
-5 3 11 11 16 19 13 8 -3 17 1 21 10 5 15 7 15 15 1 10 -19 38 -12 38 9 0 12
19 19 43 15 4 0 7 4 7 9 0 5 7 10 16 10 8 0 12 5 8 11 -4 8 1 9 16 4 19 -6 22
-4 16 10 -5 14 -2 17 18 13 14 -3 31 -1 38 3 7 5 19 7 26 4 8 -3 18 -5 24 -5z
m202 -366 c9 -3 16 -12 16 -20 0 -8 3 -13 8 -13 20 3 23 -3 11 -18 -10 -11
-10 -14 -1 -9 11 6 17 -5 13 -26 0 -5 4 -8 9 -8 7 0 7 -6 1 -18 -6 -12 -5 -23
4 -36 11 -14 11 -21 2 -31 -7 -7 -17 -10 -24 -8 -6 2 -14 -5 -18 -16 -3 -12
-18 -24 -33 -27 -15 -3 -33 -7 -39 -10 -7 -2 -13 1 -13 7 0 6 -4 8 -9 4 -5 -3
-12 -1 -16 4 -4 7 -15 7 -32 0 -17 -6 -30 -6 -38 1 -9 8 -14 6 -19 -6 -5 -12
-9 -14 -20 -5 -7 6 -16 8 -19 4 -4 -3 -7 -1 -7 5 0 6 -6 9 -14 6 -8 -3 -12
-12 -9 -20 3 -9 -2 -14 -16 -15 -23 -2 -39 -5 -43 -9 -2 -1 -25 -3 -52 -5 -28
-1 -52 -8 -57 -16 -7 -11 -11 -10 -24 6 -14 19 -15 19 -8 1 5 -16 3 -18 -11
-13 -10 4 -22 7 -28 7 -6 0 -8 6 -5 14 4 11 -1 13 -19 10 -15 -3 -24 0 -24 8
0 7 -11 18 -25 25 -19 8 -24 8 -19 0 3 -7 -1 -4 -9 5 -8 10 -17 15 -20 11 -4
-3 -7 -1 -7 5 0 7 -5 12 -10 12 -6 0 -9 -3 -9 -7 3 -18 -2 -24 -13 -17 -22 14
-48 11 -48 -4 0 -11 -3 -12 -14 -3 -11 10 -17 8 -25 -6 -11 -17 -12 -17 -26 1
-8 11 -15 14 -15 7 0 -7 -5 -9 -11 -6 -6 4 -13 -2 -16 -13 -3 -11 -12 -20 -21
-20 -10 0 -29 -3 -44 -7 -16 -4 -28 -3 -28 2 0 5 -9 9 -20 10 -11 1 -20 -4
-20 -13 0 -8 -7 -14 -15 -14 -8 0 -18 0 -22 -1 -5 0 -13 21 -20 48 -13 56 -16
89 -6 80 3 -4 12 -2 20 4 7 6 13 9 13 6 0 -3 20 1 45 8 31 10 46 11 51 3 4 -7
10 -4 16 6 8 14 13 15 24 5 8 -6 14 -8 14 -3 0 5 5 2 10 -6 9 -13 10 -13 10 0
0 13 1 13 10 0 8 -12 10 -11 10 8 0 12 3 21 8 21 4 -1 10 0 15 1 4 1 12 4 17
5 6 1 12 4 15 5 3 1 10 4 15 5 6 1 11 4 13 5 1 1 33 3 70 5 62 1 68 0 64 -17
-3 -10 -2 -16 3 -13 4 3 11 -2 14 -11 5 -13 9 -14 20 -5 11 10 15 8 18 -6 2
-14 13 -18 45 -18 23 0 39 3 37 7 -3 4 4 8 15 8 12 0 21 -5 21 -11 0 -8 4 -8
14 0 11 9 15 9 19 -1 3 -8 6 -6 6 6 1 13 6 16 18 12 9 -4 20 -1 24 5 4 7 12 8
20 3 25 -15 41 -13 46 7 3 11 11 18 18 15 7 -2 16 -2 20 2 4 4 11 8 16 8 5 1
13 2 18 3 5 0 13 10 16 21 4 11 11 18 16 15 5 -4 9 1 9 10 0 11 5 15 15 11 9
-3 15 0 15 10 0 8 4 13 8 10 7 -4 53 5 69 13 1 1 8 -2 17 -5z m-418 -457 c5
-1 8 -8 6 -14 -2 -8 3 -10 13 -7 10 4 15 0 15 -10 0 -12 -6 -15 -24 -10 -21 5
-44 -3 -95 -33 -2 -2 4 -12 14 -23 23 -25 50 -26 68 0 8 11 17 17 21 13 3 -4
13 2 20 13 8 10 18 16 22 11 4 -4 2 -7 -6 -7 -10 0 -10 -3 0 -15 10 -12 10
-15 -4 -15 -20 0 -21 -19 -2 -26 18 -7 6 -49 -13 -49 -7 0 -20 -11 -31 -25
-18 -23 -70 -37 -70 -18 0 5 -4 7 -9 3 -5 -3 -16 1 -23 9 -10 10 -27 12 -61 6
-28 -4 -50 -3 -57 4 -7 7 -10 7 -10 -1 0 -6 -10 -11 -22 -11 -23 -1 -63 -9
-63 -12 0 -1 -16 -4 -35 -7 -19 -2 -43 -9 -53 -15 -13 -7 -23 -6 -30 1 -7 7
-14 7 -24 0 -9 -9 -13 -8 -13 0 0 7 -4 10 -8 7 -5 -3 -15 26 -24 64 l-15 70
41 1 c23 1 47 1 55 0 7 -2 11 1 8 6 -7 10 74 10 91 -1 6 -4 12 -3 12 2 0 5 11
7 25 4 19 -3 25 0 25 14 1 18 1 18 15 0 13 -17 15 -18 15 -3 0 9 3 16 8 16 4
-1 9 -1 12 1 3 1 16 3 30 6 14 2 30 10 35 18 6 7 16 11 23 9 7 -3 12 4 12 17
0 17 3 20 13 12 8 -7 21 -6 42 2 18 8 32 9 36 4 3 -6 10 -10 15 -11z m354
-263 c0 -8 3 -13 8 -13 20 3 23 -3 11 -18 -10 -11 -10 -14 -1 -9 11 6 17 -5
13 -26 0 -5 4 -8 10 -8 6 0 4 -7 -5 -15 -15 -16 -51 -21 -42 -7 3 5 -2 19 -11
31 -12 18 -22 22 -44 17 -16 -3 -29 -1 -29 4 0 6 -3 10 -7 10 -12 0 -8 -63 5
-87 7 -13 22 -23 32 -23 24 0 25 -8 5 -36 -14 -21 -40 -24 -83 -10 -12 4 -20
12 -17 17 3 5 -8 7 -24 5 -17 -2 -31 1 -31 7 0 5 -8 3 -17 -4 -11 -10 -14 -10
-9 -1 4 6 2 12 -3 12 -6 0 -11 -6 -11 -14 0 -20 -63 -42 -110 -38 -29 3 -40 8
-36 18 3 8 0 11 -10 7 -12 -4 -19 7 -15 29 0 4 -8 5 -19 3 -11 -2 -20 0 -20 4
0 13 -39 21 -46 10 -3 -5 -10 -7 -15 -3 -5 3 -16 1 -24 -6 -10 -8 -15 -8 -20
1 -6 8 -10 7 -16 -2 -8 -12 -11 -11 -19 1 -8 12 -10 12 -10 1 0 -11 -3 -11
-15 -1 -13 10 -15 9 -15 -10 0 -13 -3 -20 -6 -17 -4 3 -15 2 -25 -3 -13 -8
-20 -6 -28 7 -6 11 -11 13 -11 5 0 -7 -4 -10 -10 -7 -5 3 -10 0 -10 -8 0 -19
-29 -17 -34 2 -3 9 -7 32 -11 51 -4 19 -8 42 -11 50 -3 11 4 16 24 17 15 0 39
4 55 7 16 4 27 2 27 -4 0 -5 5 -10 11 -10 5 0 8 4 4 9 -3 5 -1 12 4 15 5 3 12
-2 16 -12 6 -15 8 -14 16 7 6 15 14 21 24 17 8 -3 15 -2 15 2 0 5 10 9 23 9
12 1 36 3 52 5 17 3 36 0 43 -5 8 -6 12 -5 12 2 0 7 10 11 23 9 12 -2 21 -9
20 -15 -2 -7 6 -10 17 -8 18 3 25 -6 21 -28 -1 -5 3 -6 8 -3 5 3 14 0 20 -8 7
-8 27 -13 46 -12 19 1 35 -3 35 -9 0 -5 5 -2 11 8 6 10 15 14 22 10 18 -11 46
-11 44 1 -1 5 10 16 26 23 15 8 27 20 27 28 0 8 8 12 19 10 15 -3 18 1 14 12
-4 10 -2 14 4 10 5 -3 23 -3 39 2 36 10 64 3 64 -15z m4 -139 c-4 -8 -14 -15
-23 -15 -14 1 -13 3 3 15 25 19 27 19 20 0z"/>
<path d="M1854 2986 c-30 -47 1 -89 53 -70 20 7 29 17 31 38 4 33 -5 45 -41
52 -20 3 -30 -2 -43 -20z"/>
<path d="M2416 3013 c-4 -5 -13 -8 -19 -8 -15 0 -18 -44 -6 -67 13 -24 46 -23
54 2 3 11 13 20 21 20 18 0 18 10 -2 38 -15 22 -35 28 -48 15z"/>
<path d="M2783 1997 c-40 -46 13 -98 77 -76 25 9 29 15 24 33 -20 66 -64 85
-101 43z m23 -42 c1 -8 -2 -13 -7 -9 -5 3 -9 12 -9 21 0 19 13 9 16 -12z"/>
<path d="M2531 1964 c0 -11 3 -14 6 -6 3 7 2 16 -1 19 -3 4 -6 -2 -5 -13z"/>
<path d="M3000 1650 c-8 -5 -15 -15 -15 -22 0 -7 -9 -12 -20 -10 -15 2 -12 -4
15 -27 39 -34 64 -38 86 -17 20 20 18 29 -14 59 -32 30 -31 30 -52 17z m24
-51 c-6 -11 -24 -2 -24 11 0 5 7 7 15 4 8 -4 12 -10 9 -15z"/>
<path d="M963 3285 c-68 -31 -103 -66 -103 -103 0 -22 -10 -37 -41 -62 l-41
-33 6 -67 7 -67 -81 -5 c-71 -4 -92 -10 -168 -49 -159 -80 -192 -127 -192
-266 0 -48 -4 -93 -8 -99 -4 -7 -24 -19 -44 -27 -20 -9 -43 -28 -51 -44 -9
-16 -32 -36 -55 -46 -45 -20 -65 -56 -61 -110 2 -24 -3 -42 -15 -56 -16 -17
-18 -32 -14 -84 6 -76 37 -141 86 -184 l36 -32 -47 -43 c-26 -25 -47 -53 -47
-62 0 -10 -16 -36 -35 -57 -39 -44 -46 -89 -19 -127 11 -16 13 -34 9 -65 -6
-37 -3 -48 19 -74 15 -18 40 -34 56 -38 18 -4 36 -19 49 -40 20 -34 20 -34 0
-59 -10 -13 -19 -38 -19 -55 0 -16 -11 -46 -24 -66 -50 -72 -42 -193 17 -284
18 -27 41 -63 52 -80 23 -36 105 -81 147 -81 25 0 27 -3 22 -28 -3 -16 1 -45
10 -66 11 -27 13 -43 6 -56 -19 -35 -11 -69 25 -109 19 -21 35 -42 35 -46 0
-4 7 -22 16 -41 13 -26 26 -36 58 -45 22 -6 54 -21 71 -33 40 -28 125 -28 181
0 l40 21 30 -26 c20 -16 34 -39 38 -63 8 -45 55 -88 97 -88 20 0 38 -10 58
-32 27 -30 31 -32 107 -32 90 -1 123 14 216 96 l53 46 60 -20 c44 -15 75 -19
115 -15 168 17 237 84 274 267 23 116 6 172 -90 292 -30 37 -54 74 -54 83 0 9
8 29 18 43 36 52 45 90 40 171 -3 59 -10 85 -25 105 -16 20 -20 35 -16 66 8
58 -3 89 -41 111 -22 13 -36 30 -39 48 -3 16 -17 42 -31 57 l-24 29 21 40 c18
35 21 55 19 154 -1 100 -4 119 -23 144 -15 21 -20 39 -16 65 6 49 -25 128 -68
172 -33 34 -33 37 -28 100 3 36 0 114 -6 173 -10 103 -14 114 -66 215 -56 106
-56 107 -49 172 3 36 10 84 14 106 10 57 -7 169 -34 229 -48 106 -102 144
-242 170 -101 20 -129 18 -191 -10z m150 -383 c15 7 22 7 28 -3 5 -8 9 -10 9
-4 0 5 14 -6 31 -24 23 -26 27 -36 17 -42 -9 -6 -6 -9 11 -9 23 0 23 -1 7 -13
-16 -12 -16 -14 -2 -26 12 -10 13 -17 4 -37 -7 -14 -17 -23 -24 -20 -6 2 -16
-6 -23 -20 -8 -18 -19 -24 -40 -24 -41 0 -83 20 -77 37 3 7 -1 13 -9 13 -18 0
-20 16 -3 26 7 5 4 10 -11 16 -13 5 -19 12 -15 19 4 7 0 17 -9 24 -14 10 -14
14 0 43 12 25 19 30 29 21 10 -8 16 -5 26 10 8 13 16 17 22 11 5 -5 17 -5 29
2z m-446 -197 c21 1 30 -2 26 -10 -3 -9 4 -11 21 -8 17 4 26 1 26 -8 0 -8 6
-5 15 7 8 11 15 14 15 7 0 -18 30 -16 30 1 0 9 17 16 46 21 39 5 49 3 65 -14
11 -12 25 -21 30 -21 6 0 9 -7 5 -15 -4 -10 1 -15 15 -15 11 0 18 -4 15 -9 -5
-7 42 -60 47 -54 5 6 47 -11 47 -19 0 -5 5 -6 10 -3 5 3 10 2 10 -3 0 -11 63
-11 71 0 8 12 59 20 59 9 0 -13 34 -8 43 7 15 23 25 12 32 -35 3 -27 9 -58 12
-70 4 -18 1 -21 -21 -19 -14 2 -26 -1 -26 -6 0 -5 -5 -6 -10 -3 -5 3 -10 2
-10 -4 0 -14 -30 -7 -41 10 -7 11 -9 11 -9 -3 0 -10 -4 -18 -10 -18 -5 0 -10
5 -10 10 0 18 -18 11 -25 -9 -4 -14 -13 -18 -30 -15 -13 2 -27 0 -30 -6 -10
-16 -45 -11 -52 8 -4 9 -15 24 -25 33 -10 9 -15 19 -11 23 3 3 -2 6 -11 6 -12
0 -16 5 -12 15 5 13 0 17 -21 14 -3 0 -10 6 -15 15 -5 9 -14 14 -19 10 -5 -3
-8 0 -7 8 2 7 -6 13 -17 14 -40 2 -46 4 -40 14 3 6 -3 10 -14 10 -11 0 -23 -5
-26 -10 -4 -7 -13 -7 -25 0 -15 8 -25 4 -50 -20 -16 -16 -30 -34 -30 -39 0 -6
-7 -8 -16 -4 -10 4 -17 -1 -21 -16 -3 -11 -8 -21 -12 -22 -3 0 -17 -3 -31 -5
-33 -6 -83 15 -76 32 3 8 -1 14 -11 14 -13 0 -13 3 -3 15 9 11 9 15 1 15 -20
0 -30 43 -14 61 8 9 15 26 16 38 1 11 7 21 14 21 7 0 10 7 7 15 -7 18 7 20 24
3 7 -7 13 -9 13 -5 1 4 3 12 4 17 1 6 3 15 4 21 1 8 5 8 14 1 6 -5 26 -9 44
-7z m707 -353 c3 -20 6 -55 6 -77 0 -39 -1 -40 -36 -41 -20 -1 -39 -5 -43 -10
-10 -15 -41 -16 -41 -2 0 7 -6 4 -12 -6 -11 -19 -11 -19 -24 -1 -10 14 -14 15
-14 4 0 -12 -2 -12 -10 1 -7 11 -10 11 -10 2 0 -7 -4 -10 -10 -7 -6 4 -7 -1
-3 -11 5 -13 3 -16 -10 -11 -9 3 -17 2 -17 -3 0 -5 -7 -7 -15 -4 -8 4 -15 2
-15 -3 0 -5 -18 -9 -41 -8 -22 1 -43 -3 -46 -8 -3 -5 -9 -3 -14 4 -7 11 -9 9
-9 -5 0 -11 -3 -16 -7 -13 -11 12 -31 -13 -26 -33 3 -12 0 -20 -6 -20 -7 0 -9
-4 -6 -10 3 -5 1 -10 -4 -10 -6 0 -11 -7 -11 -15 0 -19 -49 -52 -58 -39 -10
14 -31 11 -41 -5 -5 -7 -14 -10 -20 -7 -6 4 -14 0 -18 -10 -5 -14 -8 -15 -17
-3 -17 22 -44 20 -39 -2 5 -17 -9 -25 -39 -20 -4 0 -10 -9 -13 -20 -4 -13 -12
-18 -22 -15 -9 4 -17 -1 -20 -14 -6 -23 -42 -35 -77 -26 -19 5 -24 12 -24 35
1 28 4 30 41 29 45 0 59 15 50 52 -8 32 -20 40 -60 40 -26 0 -34 -5 -39 -24
-9 -37 -31 -21 -28 21 3 51 23 86 41 71 11 -9 13 -8 11 3 -2 8 3 13 10 11 6
-1 12 6 12 15 0 14 2 15 9 4 7 -10 13 -11 30 -2 15 8 21 9 21 1 0 -6 4 -8 10
-5 5 3 7 0 4 -8 -3 -9 2 -13 18 -12 13 1 28 -2 34 -7 8 -5 14 -2 18 9 6 14 9
15 16 3 12 -19 43 -23 36 -4 -3 9 -1 12 4 9 6 -3 10 -2 10 2 0 5 10 9 22 10
11 1 24 7 28 13 4 7 11 12 16 13 5 1 8 8 6 15 -2 7 3 12 10 11 30 -4 38 2 33
24 -3 16 4 28 26 46 17 13 37 24 45 24 8 0 14 5 14 10 0 5 7 7 15 3 8 -3 15 0
16 7 0 9 2 8 6 -1 4 -10 8 -10 20 -1 12 10 16 10 24 -2 7 -12 9 -12 9 1 0 12
2 12 9 2 6 -11 11 -10 25 3 9 9 16 13 16 8 0 -4 7 1 15 11 13 17 15 17 21 3 8
-23 44 -17 44 7 0 11 3 16 6 13 4 -3 15 -2 25 3 12 7 20 6 24 -1 4 -6 13 -8
20 -5 8 3 16 0 19 -7 2 -7 5 -3 5 8 1 13 8 21 20 22 14 1 20 -7 25 -35z m76
-401 c0 -9 -9 -12 -30 -9 -16 3 -30 1 -30 -4 0 -4 -13 -8 -30 -8 -17 0 -30 5
-30 12 0 6 -6 3 -14 -7 -8 -11 -27 -20 -42 -21 -16 -1 -32 -3 -35 -3 -4 -1
-10 -12 -13 -26 -4 -14 -11 -23 -17 -20 -5 4 -19 -5 -29 -18 -17 -21 -27 -25
-62 -22 -24 2 -44 9 -46 14 -2 6 -8 9 -13 5 -13 -8 -11 10 4 25 10 10 8 11 -7
5 -14 -5 -17 -3 -14 7 3 8 -2 22 -10 32 -17 19 -23 67 -9 67 4 0 5 5 2 10 -3
6 -1 10 4 10 6 0 11 7 11 16 0 14 2 15 17 3 15 -12 16 -12 10 3 -4 12 -2 15 9
11 9 -3 14 1 14 13 0 15 2 16 9 5 8 -12 12 -12 25 -2 16 14 60 5 51 -10 -4 -5
2 -10 12 -10 65 -5 89 -4 100 4 7 5 19 7 28 4 8 -4 17 -2 20 2 3 5 22 9 42 9
22 0 39 5 42 14 4 12 30 -80 31 -111z m-895 39 c3 -5 1 -10 -4 -10 -6 0 -11 5
-11 10 0 6 2 10 4 10 3 0 8 -4 11 -10z m952 -246 c-6 -6 -45 -14 -90 -18 -15
-2 -30 -6 -33 -9 -4 -4 -12 -3 -18 0 -19 13 -54 11 -50 -2 6 -14 -74 -39 -128
-40 -20 0 -36 -2 -36 -5 2 -22 -4 -31 -17 -27 -8 4 -24 -6 -38 -23 -14 -16
-28 -26 -31 -23 -3 4 -6 1 -6 -5 0 -6 -7 -9 -17 -5 -11 4 -14 3 -9 -5 12 -19
-3 -35 -20 -21 -12 10 -13 9 -9 -4 4 -8 2 -18 -4 -22 -6 -3 -14 1 -17 10 -5
13 -9 12 -25 -6 -11 -12 -19 -19 -19 -14 0 4 -7 2 -16 -6 -13 -10 -17 -10 -24
0 -5 9 -9 10 -14 2 -4 -6 -12 -9 -17 -6 -5 4 -9 -1 -9 -9 0 -9 -3 -15 -7 -15
-27 4 -42 -4 -47 -27 -6 -21 -10 -24 -21 -14 -11 10 -15 7 -20 -13 -8 -30 -18
-35 -67 -32 -44 3 -73 26 -55 44 8 8 5 11 -13 11 -20 0 -22 2 -10 10 13 8 13
11 -2 22 -19 15 -32 68 -17 68 6 0 7 5 4 10 -3 6 -1 10 4 10 6 0 11 7 11 15 0
9 6 15 12 14 28 -3 38 2 38 19 0 12 2 14 8 4 6 -9 16 -10 33 -4 18 7 27 5 37
-7 10 -12 12 -12 6 -1 -5 10 0 9 14 -4 12 -11 22 -16 22 -11 0 4 6 2 14 -4 11
-9 15 -8 20 5 5 13 9 15 18 6 17 -17 48 -15 48 4 0 10 6 14 15 10 8 -3 15 -1
15 5 0 6 4 8 9 5 5 -3 14 1 21 10 7 8 19 13 27 10 8 -3 16 1 20 9 4 11 9 13
18 5 15 -12 41 13 30 30 -4 7 2 9 19 6 16 -3 26 0 26 7 0 15 54 67 69 67 6 0
11 -6 11 -12 0 -7 5 -5 11 5 8 14 14 16 25 6 8 -6 21 -8 31 -3 10 4 22 8 26 8
4 1 12 8 17 16 8 12 10 12 16 -3 4 -12 10 -15 19 -7 6 5 15 7 18 3 4 -3 7 2 7
12 0 10 3 15 6 12 4 -3 15 -2 26 4 14 7 23 7 34 -2 11 -9 14 -9 14 2 0 11 2
11 10 -1 6 -9 10 -10 10 -3 0 6 10 23 23 37 l22 25 14 -65 c8 -35 11 -67 8
-70z m62 -321 c13 -68 14 -86 2 -78 -5 3 -12 1 -16 -5 -4 -6 -11 -8 -16 -5 -5
4 -9 1 -9 -5 0 -7 -7 -10 -15 -7 -8 4 -17 2 -20 -2 -3 -5 -18 -8 -35 -7 -18 1
-32 -4 -35 -12 -4 -11 -8 -12 -20 -2 -8 7 -15 9 -15 4 0 -5 -5 -2 -10 6 -7 11
-10 11 -10 2 0 -7 -4 -10 -10 -7 -5 3 -10 -2 -10 -11 0 -10 -3 -14 -7 -11 -3
4 -12 2 -20 -4 -7 -6 -13 -8 -13 -4 0 4 -7 2 -15 -5 -8 -7 -15 -9 -15 -5 0 4
-6 3 -12 -2 -7 -6 -25 -10 -40 -9 -14 1 -25 -1 -22 -5 2 -4 -4 -10 -13 -13
-12 -5 -14 -9 -5 -18 17 -17 15 -31 -4 -24 -8 3 -13 2 -10 -3 3 -5 -1 -11 -9
-14 -8 -4 -12 -15 -10 -26 3 -14 -1 -18 -11 -14 -19 7 -44 -15 -44 -39 0 -17
-3 -18 -15 -8 -12 10 -15 10 -15 0 0 -7 -6 -10 -14 -7 -7 3 -19 0 -25 -6 -8
-8 -14 -8 -19 -2 -10 15 -31 13 -41 -4 -5 -7 -13 -11 -19 -7 -6 3 -13 2 -17
-4 -11 -17 -23 -11 -27 13 -2 12 -7 20 -12 19 -5 -2 -13 2 -17 10 -6 9 -9 7
-9 -9 0 -13 -6 -24 -12 -24 -60 -5 -83 -11 -86 -19 -2 -6 -8 -7 -13 -4 -6 3
-19 -5 -29 -19 -21 -27 -68 -31 -105 -9 -18 10 -17 11 13 12 25 0 35 6 42 24
5 13 14 27 19 31 17 10 13 36 -6 51 -29 22 -57 16 -78 -16 -12 -18 -23 -26
-29 -20 -15 15 -17 49 -4 73 7 12 11 25 10 30 -3 11 13 8 27 -5 10 -11 12 -10
9 2 -2 8 2 14 9 13 8 -2 10 4 6 15 -6 15 -5 15 10 4 9 -8 21 -11 26 -7 15 9
73 -24 65 -37 -4 -6 -3 -8 4 -4 6 3 13 2 16 -2 6 -10 36 -9 54 2 7 4 20 2 29
-6 14 -11 17 -11 21 1 4 11 6 11 13 0 7 -11 9 -11 9 1 0 18 122 62 146 53 8
-3 14 0 14 6 0 6 12 16 26 21 14 6 23 14 19 19 -3 6 4 15 15 21 15 8 18 15 11
27 -6 11 -4 21 4 30 7 7 15 18 17 24 5 14 100 20 109 7 3 -5 13 -2 22 7 9 9
21 13 27 10 6 -3 13 1 17 11 6 16 7 15 20 -2 10 -13 13 -14 13 -3 0 12 2 12
10 -1 7 -11 10 -11 10 -2 0 7 5 10 10 7 6 -3 10 1 10 9 0 9 7 16 15 16 8 0 15
4 15 8 0 11 41 9 59 -2 9 -6 18 -4 25 6 10 13 30 25 47 27 3 1 11 -25 18 -56z
m85 -479 l14 -61 -42 -2 c-120 -5 -154 -8 -164 -15 -7 -4 -12 -2 -12 4 0 6
-10 4 -24 -6 -14 -8 -27 -15 -31 -14 -11 2 -84 -23 -83 -29 2 -22 -4 -32 -16
-28 -15 6 -40 -16 -30 -25 3 -3 -8 -10 -23 -16 -22 -7 -39 -5 -73 9 -25 10
-41 18 -36 18 5 1 3 8 -4 16 -7 8 -9 15 -5 15 4 0 2 7 -6 16 -11 14 -13 32
-10 90 1 8 5 12 11 9 6 -4 7 1 3 11 -5 13 -2 15 15 10 14 -5 25 -1 35 14 11
16 16 18 20 8 4 -8 8 -9 14 -3 11 13 33 17 33 6 0 -4 45 -8 100 -8 55 0 100 4
100 9 0 5 5 6 11 2 6 -3 15 0 20 7 7 12 9 11 9 -1 0 -11 2 -12 8 -2 11 16 89
24 112 12 14 -8 19 -5 25 13 8 26 10 21 29 -59z m56 -183 c6 -31 13 -62 16
-70 3 -8 -1 -11 -11 -7 -8 3 -15 2 -15 -2 0 -4 -15 -9 -32 -11 -18 -1 -42 -4
-53 -5 -11 -1 -25 2 -32 7 -7 5 -19 1 -32 -12 -12 -12 -25 -21 -31 -21 -16 0
-23 -2 -47 -11 -16 -6 -23 -5 -24 4 0 9 -2 9 -6 0 -2 -7 -9 -13 -14 -13 -6 0
-7 4 -4 10 3 6 -1 7 -9 4 -14 -6 -20 -25 -19 -61 1 -7 -3 -13 -9 -13 -5 0 -6
-5 -2 -12 5 -8 2 -9 -9 -5 -11 4 -17 1 -17 -8 0 -19 -42 -48 -51 -34 -9 16
-22 11 -36 -14 -8 -15 -12 -17 -13 -7 0 13 -2 13 -9 1 -11 -17 -41 -24 -41
-10 0 5 -4 9 -10 9 -5 0 -10 -7 -10 -15 0 -8 -5 -15 -10 -15 -6 0 -16 -11 -22
-25 -6 -14 -17 -24 -24 -21 -7 3 -16 -4 -19 -14 -4 -11 -18 -23 -32 -26 -30
-8 -106 13 -98 26 4 6 1 10 -5 10 -7 0 -10 6 -7 13 2 6 -1 19 -9 27 -19 22
-25 68 -10 82 7 7 14 18 17 23 2 6 10 10 17 10 8 0 19 8 26 17 9 12 16 14 23
7 8 -8 17 -8 32 0 15 8 21 9 21 1 0 -6 5 -8 12 -4 8 5 9 2 4 -11 -6 -16 -4
-16 10 -4 14 11 18 11 22 1 3 -10 7 -10 18 -1 10 8 14 8 14 0 0 -6 7 -11 16
-11 8 0 12 5 9 10 -6 10 51 37 68 32 4 -1 7 5 7 13 0 8 6 12 13 9 8 -3 20 2
27 10 10 13 9 17 -4 22 -9 3 -13 10 -10 15 3 5 10 7 15 4 5 -4 9 2 9 12 0 12
8 19 21 20 24 2 49 21 49 37 0 6 16 12 35 12 19 1 35 -3 35 -7 0 -18 18 -8 23
12 4 15 11 20 21 16 11 -4 16 -1 16 11 1 16 2 16 14 -1 10 -13 16 -15 21 -7 6
9 10 9 16 -1 6 -10 9 -7 9 10 0 13 3 21 6 18 4 -3 15 -2 25 3 12 7 20 7 24 0
9 -15 35 -12 35 3 0 8 7 14 15 14 9 0 18 -19 25 -56z"/>
<path d="M1107 2834 c-22 -12 -27 -21 -25 -41 4 -35 29 -50 65 -37 31 11 41
41 23 73 -13 25 -25 26 -63 5z"/>
<path d="M605 2587 c-14 -11 -16 -20 -10 -43 4 -16 10 -23 12 -16 3 6 8 10 13
7 5 -3 20 -1 34 5 19 7 26 17 26 35 0 21 -5 25 -28 25 -16 0 -36 -6 -47 -13z"/>
<path d="M1057 1984 c-20 -11 -27 -21 -24 -38 6 -49 50 -74 86 -49 25 17 28
65 5 87 -19 20 -31 20 -67 0z"/>
<path d="M647 1573 c-4 -3 -7 -19 -7 -34 0 -48 63 -76 104 -46 18 13 17 15 -5
50 -19 29 -30 37 -55 37 -17 0 -34 -3 -37 -7z"/>
<path d="M1066 1214 c-4 -10 -1 -14 6 -12 15 5 23 28 10 28 -5 0 -13 -7 -16
-16z"/>
<path d="M1179 922 c-20 -2 -28 -10 -32 -30 -7 -35 18 -64 52 -60 26 3 53 41
45 62 -7 19 -37 31 -65 28z"/>
<path d="M986 515 c-20 -20 -20 -25 0 -53 20 -29 45 -28 74 3 19 20 22 30 14
43 -15 23 -67 27 -88 7z"/>
</g>
</svg>
